<svg width="179" height="184" viewBox="0 0 179 184" fill="none" xmlns="http://www.w3.org/2000/svg">
<path d="M139.275 29.0784C122.5 13.5 98.6575 46.6792 98.6575 46.6792C98.6575 46.6792 97.1711 2 74.2885 2C7.946 2 41.7936 81.8807 41.7936 81.8807C41.7936 81.8807 17.4233 77.5167 7.94599 95.4197C-4.238 118.436 17.4233 130.621 17.4233 130.621C17.4233 130.621 -9.65406 144.16 7.94599 171.238C29.0656 203.732 70.2255 152.284 70.2255 152.284C70.2255 152.284 80.2411 196.933 129.797 171.238C166.354 152.284 141.982 110.313 141.982 110.313C141.982 110.313 177.184 117.082 177.184 87.2963C177.184 50.7405 139.275 56.1565 139.275 56.1565C139.275 56.1565 147.023 36.2745 139.275 29.0784Z" stroke="#E3DED8" stroke-width="3"/>
</svg>
