<svg width="74" height="58" viewBox="0 0 74 58" fill="none" xmlns="http://www.w3.org/2000/svg">
<path d="M49.9624 53.2395C49.9624 53.2395 62.9786 55.1131 63.1188 51.0045C63.2802 46.2761 49.9624 53.2395 49.9624 53.2395Z" stroke="#E3DED8"/>
<path d="M11.0466 23.9068C11.0466 23.9068 18.7154 5.83385 13.279 5.83943C7.99193 5.84486 11.0466 23.9068 11.0466 23.9068Z" stroke="#E3DED8"/>
<path d="M27.7029 28.6818C27.7029 28.6818 42.1388 14.792 38.2728 11.2692C33.7146 7.11581 27.7029 28.6818 27.7029 28.6818Z" stroke="#E3DED8"/>
<path d="M56.812 27.4885C58.725 33.3146 41.9817 36.6478 41.9817 36.6478L41.5205 36.7751C41.5205 36.7751 55.2268 22.6608 56.812 27.4885Z" stroke="#E3DED8"/>
</svg>
