<svg width="145" height="140" viewBox="0 0 145 140" fill="none" xmlns="http://www.w3.org/2000/svg">
<path d="M4.34961 49.0977C6.47481 52.4972 8.41932 56.9323 10.0282 60.5741C13.4324 68.2799 17.4742 75.0588 21.1504 82.6393C25.7297 92.0821 29.7399 100.497 34.3264 109.936C36.563 114.538 39.1688 120.112 41.9442 124.426C42.6598 125.539 46.2481 129.923 46.7058 131.165" stroke="#232323" stroke-width="3" stroke-linecap="round"/>
<path d="M46.7497 131.564C51.0589 129.087 53.4454 126.404 57.5685 123.538C62.4411 120.152 67.4024 117.06 72.5967 113.444C78.6458 109.233 89.5736 102.735 95.559 98.4578C105.285 91.5079 117.854 84.7536 115.924 78.1106C113.21 68.7661 103.704 56.0576 99.5801 50.0556C96.2297 45.179 90.3414 36.8073 86.0487 29.354C82.4916 23.1779 76.0713 14.3624 73.6261 7.72601" stroke="#232323" stroke-width="3" stroke-linecap="round"/>
<path d="M73.5824 7.32771C70.4347 8.09045 67.4009 10.9975 64.4531 12.3486C60.9354 13.961 57.3586 16.1111 54.2151 18.2959C51.5721 20.1329 48.2606 23.3756 45.129 23.7152" stroke="#232323" stroke-width="3" stroke-linecap="round"/>
<path d="M46.2715 26.8183C41.2596 20.2043 39.4276 16.8162 33.657 10.8541C33.3039 10.489 30.6489 14.5929 29.7499 15.7111C28.3292 17.4777 27.974 17.9191 26.0685 18.9319C24.6251 19.6991 22.2574 20.9576 22.4303 22.5511C22.642 24.5034 26.5285 28.3469 27.6767 30.0436C30.9655 34.9035 32.2685 38.9322 36.8544 40.335C40.5531 41.4664 43.1423 38.8469 45.3598 36.9941C46.735 35.845 49.0021 33.4123 48.782 31.3829C48.637 30.0464 47.0687 27.8703 46.2715 26.8183Z" stroke="#232323" stroke-width="3" stroke-linecap="round"/>
<path d="M4.74865 49.0552C10.6541 45.5329 16.8384 41.4904 22.4792 37.8614C24.1974 36.756 27.6626 34.0746 29.7029 33.8533" stroke="#232323" stroke-width="3" stroke-linecap="round"/>
<path d="M77.1059 13.798C81.4018 12.5259 86.955 9.57151 91.371 7.81696C93.6096 6.92752 97.294 5.10209 99.4347 4.12085" stroke="#232323" stroke-width="3" stroke-linecap="round"/>
<path d="M99.4346 4.12109C101.209 13.2876 104.674 22.6989 109.232 31.2738C112.27 36.9904 118.45 51.234 122.087 56.8857C127.904 65.9286 127.705 65.9502 133.765 75.3698C135.704 78.3841 137.658 81.0897 139.54 84.0143" stroke="#232323" stroke-width="3" stroke-linecap="round"/>
<path d="M65.5883 119.444C67.4412 121.662 70.4634 124.698 72.4284 126.764C74.2219 128.649 75.5369 130.481 77.814 131.823C81.0933 133.755 85.247 130.934 87.9993 129.106C94.4911 124.794 101.391 118.786 106.536 114.197C113.225 108.231 119.4 102.725 125.915 96.9306C134.839 88.9939 130.493 93.102 139.184 84.4559" stroke="#232323" stroke-width="3" stroke-linecap="round"/>
<path d="M30.4186 74.7699C33.1406 72.9814 37.0749 69.0661 39.7499 67.0246C46.7531 61.6801 53.5328 56.1826 60.8668 51.3006C64.7168 48.7378 68.6112 46.9652 72.3791 44.5411" stroke="#232323" stroke-width="3" stroke-linecap="round"/>
<path d="M38.7583 85.1386C40.3863 83.416 42.2877 81.997 44.1173 80.4989C47.4743 77.7502 50.4695 74.6338 53.7747 71.8357C58.4397 67.8863 63.817 65.1269 68.8324 61.6848C72.8294 58.9416 76.4082 55.0933 80.8248 53.0689" stroke="#232323" stroke-width="3" stroke-linecap="round"/>
<path d="M43.9297 95.4027C56.5652 82.2031 71.7792 72.4794 86.8393 62.7906" stroke="#232323" stroke-width="3" stroke-linecap="round"/>
<path d="M50.389 105.072C54.9931 100.966 59.4505 96.4108 64.2872 92.5793C65.5711 91.5622 67.9686 89.3585 69.4325 87.9905" stroke="#232323" stroke-width="3" stroke-linecap="round"/>
</svg>
