<svg width="84" height="84" viewBox="0 0 84 84" fill="none" xmlns="http://www.w3.org/2000/svg">
<path d="M41.9997 1.67969C19.7313 1.67969 1.67969 19.7313 1.67969 41.9997C1.67969 64.2681 19.7313 82.3197 41.9997 82.3197C64.2681 82.3197 82.3197 64.2681 82.3197 41.9997C82.3197 19.7313 64.2681 1.67969 41.9997 1.67969ZM57.5061 47.1699C57.5061 47.1699 61.0719 50.6895 61.9497 52.3233C61.9749 52.3569 61.9875 52.3905 61.9959 52.4073C62.3529 53.0079 62.4369 53.4741 62.2605 53.8227C61.9665 54.4023 60.9585 54.6879 60.6141 54.7131H54.3141C53.8773 54.7131 52.9617 54.5997 51.8529 53.8353C51.0003 53.2389 50.1603 52.2603 49.3413 51.3069C48.1191 49.8873 47.0607 48.6609 45.9939 48.6609C45.8584 48.6606 45.7237 48.6819 45.5949 48.7239C44.7885 48.9843 43.7553 50.1351 43.7553 53.2011C43.7553 54.1587 42.9993 54.7089 42.4659 54.7089H39.5805C38.5977 54.7089 33.4779 54.3645 28.9419 49.5807C23.3895 43.7217 18.3915 31.9701 18.3495 31.8609C18.0345 31.1007 18.6855 30.6933 19.3953 30.6933H25.7583C26.6067 30.6933 26.8839 31.2099 27.0771 31.6677C27.3039 32.2011 28.1355 34.3221 29.5005 36.7077C31.7139 40.5969 33.0705 42.1761 34.1583 42.1761C34.3623 42.1737 34.5626 42.1218 34.7421 42.0249C36.1617 41.2353 35.8971 36.1743 35.8341 35.1243C35.8341 34.9269 35.8299 32.8605 35.1033 31.8693C34.5825 31.1511 33.6963 30.8781 33.1587 30.7773C33.3763 30.477 33.663 30.2336 33.9945 30.0675C34.9689 29.5803 36.7245 29.5089 38.4675 29.5089H39.4377C41.3277 29.5341 41.8149 29.6559 42.4995 29.8281C43.8855 30.1599 43.9149 31.0545 43.7931 34.1163C43.7553 34.9857 43.7175 35.9685 43.7175 37.1277C43.7175 37.3797 43.7049 37.6485 43.7049 37.9341C43.6629 39.4923 43.6125 41.2605 44.7129 41.9871C44.8564 42.0771 45.0223 42.1251 45.1917 42.1257C45.5739 42.1257 46.7247 42.1257 49.8411 36.7791C50.8022 35.0582 51.6374 33.2699 52.3401 31.4283C52.4031 31.3191 52.5879 30.9831 52.8063 30.8529C52.9675 30.7707 53.1462 30.7289 53.3271 30.7311H60.8073C61.6221 30.7311 62.1807 30.8529 62.2857 31.1679C62.4705 31.6677 62.2521 33.1923 58.8375 37.8165L57.3129 39.8283C54.2175 43.8855 54.2175 44.0913 57.5061 47.1699Z" fill="#E3DED8"/>
</svg>
