<svg width="80" height="80" viewBox="0 0 80 80" fill="none" xmlns="http://www.w3.org/2000/svg">
<path d="M46.6792 39.3042L37.3208 34.9375C36.5042 34.5583 35.8333 34.9833 35.8333 35.8875V44.1125C35.8333 45.0167 36.5042 45.4417 37.3208 45.0625L46.675 40.6958C47.4958 40.3125 47.4958 39.6875 46.6792 39.3042ZM40 0C17.9083 0 0 17.9083 0 40C0 62.0917 17.9083 80 40 80C62.0917 80 80 62.0917 80 40C80 17.9083 62.0917 0 40 0ZM40 56.25C19.525 56.25 19.1667 54.4042 19.1667 40C19.1667 25.5958 19.525 23.75 40 23.75C60.475 23.75 60.8333 25.5958 60.8333 40C60.8333 54.4042 60.475 56.25 40 56.25Z" fill="#E3DED8"/>
</svg>
