<svg width="356" height="281" viewBox="0 0 356 281" fill="none" xmlns="http://www.w3.org/2000/svg">
<path d="M128.788 183.932C114.568 178.837 94.7854 170.91 90.1393 170.815C84.3238 170.696 135.584 265.346 135.584 265.346C135.584 265.346 199.113 259.541 232.355 238.788C262.354 220.059 294.179 172.616 294.179 172.616C294.179 172.616 281.149 152.767 269.925 131.827C259.081 111.598 250.053 90.3308 248.78 86.0742C245.683 75.7164 241.646 99.7407 237.548 118.597M128.788 183.932C136.913 186.843 143.222 188.829 143.856 187.902C145.499 185.502 150.808 157.143 154.59 142.877M128.788 183.932C128.788 183.932 130.262 120.877 137.633 126.226C146.217 132.455 154.59 142.877 154.59 142.877M154.59 142.877C155.548 139.265 156.407 136.556 157.085 135.4C158.404 133.151 170.503 146.817 179.984 157.078M179.984 157.078C184.218 161.662 187.93 165.566 189.926 167.068C194.593 170.582 191.744 110.567 198.672 110.486C203.156 110.434 227.424 135.154 229.704 137.937C232.183 140.961 234.879 130.875 237.548 118.597M179.984 157.078C179.984 157.078 189.934 94.9594 189.222 90.2688C187.701 80.2574 237.548 118.597 237.548 118.597" stroke="#E3DED8" stroke-width="3"/>
<path d="M278.492 104.276C283.663 100.628 288.696 96.7677 293.899 93.1686C299.679 89.1696 306.396 86.3242 312.51 82.852C316.96 80.325 321.439 77.8187 325.966 75.4331C327.59 74.5775 329.426 73.5419 331.275 73.2609" stroke="#E3DED8" stroke-width="3" stroke-linecap="round"/>
<path d="M260.429 74.1093C260.872 71.8083 261.695 69.8373 262.862 67.792C266.666 61.1272 271.108 54.8679 275.695 48.7267C279.774 43.2642 283.801 37.6923 288.207 32.4855C289.642 30.7907 291.19 28.808 293.005 27.5272" stroke="#E3DED8" stroke-width="3" stroke-linecap="round"/>
<path d="M226.764 75.4396C226.531 55.1211 232.62 33.6673 240.525 15.0933" stroke="#E3DED8" stroke-width="3" stroke-linecap="round"/>
<path d="M190.559 71.4174C186.959 60.875 184.479 50.0293 182.918 38.9999C182.413 35.4306 182.368 31.6611 181.193 28.2203" stroke="#E3DED8" stroke-width="3" stroke-linecap="round"/>
<path d="M155.587 99.1531C154.995 97.4847 154.228 95.8478 153.56 94.2182C148.512 81.9034 144.325 69.3248 140.549 56.5649C136.729 43.6542 136.66 41.086 131.188 28.7344" stroke="#E3DED8" stroke-width="3" stroke-linecap="round"/>
<path d="M124.921 107.804C117.22 101.576 109.755 94.7332 102.809 87.6802C102.156 87.0163 96.7562 82.3333 96.2275 81.584" stroke="#E3DED8" stroke-width="3" stroke-linecap="round"/>
<path d="M107.164 140.61C96.2855 132.046 85.2676 122.185 74.3508 117.152C68.3766 114.398 62.5682 111.741 56.8418 108.94" stroke="#E3DED8" stroke-width="3" stroke-linecap="round"/>
<path d="M72.0853 164.915C61.7689 163.339 51.9176 160.887 42.0264 157.585" stroke="#E3DED8" stroke-width="3" stroke-linecap="round"/>
<path d="M73.1507 200.792C61.3471 203.193 49.7194 205.553 38.6797 210.494C34.3397 212.437 30.0575 214.165 25.5669 215.702" stroke="#E3DED8" stroke-width="3" stroke-linecap="round"/>
</svg>
