<svg width="1749" height="1215" viewBox="0 0 1749 1215" fill="none" xmlns="http://www.w3.org/2000/svg">
<path d="M69.9999 1206.82C79.2196 1106.89 30.6394 934.116 39.9808 834C56.9253 652.398 128.505 475.626 102.617 295.83C92.2735 223.988 73.0518 182.983 91.189 110.347C92.0939 106.723 93.8031 97.5431 96.5338 93.9868C100.407 88.9423 111.978 90.824 115.263 90.6457C155.168 88.4789 209.974 87.6 245.896 87.129C402.713 85.0727 535.181 64.3018 692 61.5C866.625 58.38 1065.16 66.6352 1239.74 63.5526C1355.25 61.5128 1470.75 66.2238 1586.22 65.2226C1593.54 65.1591 1600.2 63.4419 1601.53 72.6157C1618 185.879 1647.95 268.562 1653.86 382.598C1664.77 593.07 1697.36 804.879 1690.5 1016C1689.22 1055.43 1690.5 1096.5 1690.5 1136.98C1690.5 1149.69 1699.56 1187.14 1690.5 1196.5C1685.19 1201.99 1623.69 1178.13 1616.22 1175.98C1467.58 1133.13 1324.05 1210.06 1170.79 1184.53C927.25 1143.95 675.82 1119.37 427.5 1148.2C323.239 1160.3 212.547 1181.44 110.382 1202.85C108.076 1203.33 30.7802 1214.49 26.4999 1209.52C9.03369 1189.23 24.5377 1156.94 26.429 1130.7C32.4149 1047.68 60.3242 893.889 63.5784 809.568C66.491 734.102 61.1227 663.589 52.2136 589.147C41.7494 501.711 40.713 414.368 39.508 326.387C38.5595 257.129 37.9636 228.072 39.9809 159.032C40.8005 130.982 38.269 103.317 35.4087 75.4916C33.5055 56.976 26.5502 6.44101 50.0632 6.72316C293.398 9.6432 536.325 26.3491 779.286 36.2382C988.327 44.7466 1196.59 65.3588 1405.5 67.2805C1486.27 68.0235 1566.85 97.4191 1647.15 89.1652C1657.77 88.0732 1651.73 87.8227 1649.88 103.516C1637.43 208.985 1646.5 300.497 1641.5 406.5C1635.86 525.985 1634.02 620.738 1643.12 739.474C1647.4 795.311 1671.59 857.756 1668.5 913.501C1665.4 969.497 1669.16 1059.12 1669.5 1115C1669.65 1140.49 1652.63 1134.39 1626 1136.98C1392.7 1159.67 1133.72 1201.62 901 1175.5C767.913 1160.57 637.003 1189.84 504.902 1168.73C425.249 1156 331.179 1170.11 249.5 1171C211.945 1171.41 169.304 1150.17 132 1154.5C109.117 1157.16 67.2725 1173.32 44.9999 1171M44.9999 1171C32.4978 1169.7 85.3258 605.522 86.6605 570.268C91.9732 429.938 61.6366 369.707 69.4103 232.937C73.2474 143.001 73.6628 122.065 70.1135 112.514C63.8898 97.6073 47.8015 66.9974 78.2087 67.0752C195.96 67.3764 388.233 89.64 578.054 103.25C687.337 111.086 793.016 73.7206 901.999 63.5526C1024.81 52.0949 1151.56 68.0821 1273.3 48.3031C1419.72 24.516 1529.3 36.2971 1674.31 7.64895C1684.39 5.65858 1701.29 -4.39838 1702.75 9.82908C1703.6 18.139 1698.81 22.2195 1697.84 30.7164C1695.99 47.0038 1697.4 63.213 1693.55 92.5202C1670.39 268.765 1686.61 315.731 1703.74 491.83C1717.59 634.135 1714.93 774.244 1729.55 916.391C1734.43 963.946 1735.38 1041.81 1740.11 1087.76C1741.46 1100.88 1743.68 1122.52 1745.17 1136.98C1745.82 1143.36 1749.61 1147.9 1742.95 1149.69C1736.08 1151.53 1711.54 1152.92 1707.25 1153.36C1704.17 1153.68 1678.12 1152.94 1674.61 1153.22C1618.6 1157.74 1605.28 1145.25 1550.48 1144.27C1382.09 1141.28 1237.26 1198.22 1069 1192C906.894 1186.01 726.121 1203.23 564.5 1192C421.284 1182.05 278.084 1213.74 135.317 1213.5C112.09 1213.46 13.6466 1205.32 9.50012 1177.5C-16.3282 1004.23 31.7192 754.47 20.4764 579.5C9.92261 415.256 22.7483 300.094 17.6764 135.564C17.0724 115.971 2.35301 45.3832 32.9827 44.0619C108.272 40.8141 190.467 43.298 265 48.3031C541.613 66.8783 736.218 85.1877 1013.17 100.529C1308.13 116.868 1359 120.336 1653.86 135.49C1665.46 136.086 1714.84 126.244 1712.53 136.998C1706.98 162.863 1705.91 199.424 1708.73 240.196C1716.79 318.657 1687.1 360.67 1684 424C1677.63 553.994 1664.87 711.383 1643.12 846.5C1645.27 887.06 1642.5 1076.5 1642.5 1115C1642.5 1125.5 1653.55 1204.45 1642.5 1204.13C1636.41 1203.96 1612.82 1204.13 1604.06 1204.13C1540.5 1204.13 1525.5 1209.38 1448 1190.5C1244.64 1140.96 943.447 1195.67 681.676 1148.2C414.044 1099.67 316.749 1177.06 44.9999 1171Z" stroke="#E3DED8" stroke-width="3" stroke-linecap="round"/>
</svg>
