<svg width="90" height="90" viewBox="0 0 90 90" fill="none" xmlns="http://www.w3.org/2000/svg">
<g clip-path="url(#clip0_327_411)">
<path d="M59.233 49.6143C59.9492 49.6143 60.6328 49.7445 61.2838 50.0049C61.9349 50.2653 62.5208 50.6559 63.0416 51.1768L68.4127 56.5478C68.9173 57.0524 69.2998 57.6302 69.5602 58.2812C69.8206 58.9323 69.9589 59.624 69.9752 60.3564C69.9752 61.0726 69.845 61.7562 69.5846 62.4072C69.3242 63.0583 68.9336 63.6442 68.4127 64.165L68.0709 64.5068C67.192 65.3857 66.3864 66.167 65.6539 66.8506C64.9215 67.5342 64.1565 68.1038 63.359 68.5596C62.5615 69.0153 61.6744 69.3734 60.6979 69.6338C59.7213 69.8942 58.5576 70.0163 57.2067 70C55.1722 70 53.0807 69.6826 50.9323 69.0478C48.7838 68.4131 46.6517 67.5342 44.5358 66.4111C42.4199 65.2881 40.3365 63.9534 38.2858 62.4072C36.235 60.861 34.3063 59.1764 32.4996 57.3535C30.693 55.5306 29.0166 53.5937 27.4703 51.543C25.9241 49.4922 24.6058 47.4089 23.5153 45.293C22.4248 43.1771 21.5621 41.0531 20.9274 38.9209C20.2926 36.7887 19.9834 34.738 19.9996 32.7686C19.9996 31.4176 20.1136 30.262 20.3414 29.3018C20.5693 28.3415 20.9192 27.4626 21.3912 26.665C21.8632 25.8675 22.4329 25.1107 23.1002 24.3945C23.7675 23.6784 24.5488 22.8727 25.444 21.9775L25.8346 21.5869C26.3392 21.0824 26.917 20.6917 27.568 20.415C28.219 20.1383 28.9108 20 29.6432 20C30.3593 20 31.0429 20.1383 31.694 20.415C32.345 20.6917 32.931 21.0824 33.4518 21.5869L38.8229 26.958C39.3274 27.4626 39.7099 28.0404 39.9703 28.6914C40.2308 29.3424 40.3691 30.0342 40.3854 30.7666C40.3854 31.4827 40.2633 32.1175 40.0192 32.6709C39.775 33.2243 39.4739 33.737 39.1158 34.209C38.7578 34.681 38.3671 35.096 37.944 35.4541C37.5208 35.8122 37.122 36.1784 36.7477 36.5527C36.3733 36.9271 36.0722 37.2852 35.8444 37.627C35.6165 37.9687 35.4944 38.3675 35.4782 38.8232C35.4782 39.4417 35.6979 39.9707 36.1373 40.4102L49.5895 53.8623C50.0289 54.3018 50.5579 54.5215 51.1764 54.5215C51.5996 54.5215 51.9902 54.3994 52.3483 54.1553C52.7063 53.9111 53.0726 53.61 53.4469 53.2519C53.8212 52.8939 54.1875 52.5033 54.5455 52.0801C54.9036 51.6569 55.3186 51.2581 55.7906 50.8838C56.2627 50.5094 56.7672 50.2083 57.3043 49.9805C57.8414 49.7526 58.4843 49.6305 59.233 49.6143ZM57.2067 66.875C58.3785 66.875 59.3551 66.7692 60.1364 66.5576C60.9176 66.346 61.6337 66.0286 62.2848 65.6055C62.9358 65.1823 63.5543 64.6615 64.1403 64.043C64.7262 63.4245 65.4179 62.7246 66.2155 61.9434C66.6549 61.5039 66.8746 60.9749 66.8746 60.3564C66.8746 60.0635 66.7607 59.7217 66.5328 59.3311C66.305 58.9404 65.9957 58.5173 65.6051 58.0615C65.2145 57.6058 64.7994 57.1582 64.36 56.7187C63.9205 56.2793 63.4648 55.8398 62.9928 55.4004C62.5208 54.9609 62.1058 54.5784 61.7477 54.2529C61.3896 53.9274 61.0885 53.6426 60.8444 53.3984C60.4049 52.959 59.8678 52.7393 59.233 52.7393C58.8099 52.7393 58.4192 52.8613 58.0612 53.1055C57.7031 53.3496 57.345 53.6507 56.9869 54.0088C56.6289 54.3669 56.2627 54.7575 55.8883 55.1807C55.514 55.6038 55.0908 56.0026 54.6188 56.3769C54.1468 56.7513 53.6422 57.0524 53.1051 57.2803C52.568 57.5081 51.9251 57.6302 51.1764 57.6465C50.4602 57.6465 49.7767 57.5163 49.1256 57.2559C48.4746 56.9954 47.8886 56.6048 47.3678 56.084L33.9157 42.6318C33.4111 42.1273 33.0286 41.5495 32.7682 40.8984C32.5078 40.2474 32.3694 39.5557 32.3531 38.8232C32.3531 38.1071 32.4752 37.4723 32.7194 36.9189C32.9635 36.3656 33.2646 35.8529 33.6227 35.3809C33.9808 34.9089 34.3714 34.4938 34.7946 34.1357C35.2177 33.7777 35.6165 33.4033 35.9908 33.0127C36.3652 32.6221 36.6663 32.264 36.8942 31.9385C37.122 31.613 37.2441 31.2223 37.2604 30.7666C37.2604 30.1318 37.0406 29.5947 36.6012 29.1553C36.3896 28.9437 36.1129 28.6507 35.7711 28.2764C35.4293 27.902 35.0468 27.487 34.6237 27.0312C34.2005 26.5755 33.761 26.1198 33.3053 25.6641C32.8496 25.2083 32.3938 24.7852 31.9381 24.3945C31.4824 24.0039 31.0673 23.7028 30.693 23.4912C30.3186 23.2796 29.9687 23.1576 29.6432 23.125C29.0247 23.125 28.4957 23.3447 28.0563 23.7842L25.9811 25.8594C25.3789 26.4616 24.858 27.0801 24.4186 27.7148C23.9791 28.3496 23.6536 29.0576 23.442 29.8389C23.2304 30.6201 23.1165 31.5967 23.1002 32.7686C23.1002 34.5915 23.3932 36.4714 23.9791 38.4082C24.5651 40.3451 25.387 42.2819 26.4449 44.2187C27.5029 46.1556 28.748 48.0599 30.1803 49.9316C31.6126 51.8034 33.1751 53.5856 34.8678 55.2783C36.5605 56.971 38.3427 58.5173 40.2145 59.917C42.0862 61.3167 43.9905 62.5374 45.9274 63.5791C47.8642 64.6208 49.7848 65.4264 51.6891 65.9961C53.5934 66.5658 55.4326 66.8587 57.2067 66.875Z" fill="#E3DED8"/>
</g>
<circle cx="45" cy="45" r="43.5" stroke="#E3DED8" stroke-width="3"/>
<defs>
<clipPath id="clip0_327_411">
<rect width="50" height="50" fill="white" transform="translate(20 20)"/>
</clipPath>
</defs>
</svg>
