<svg width="253" height="22" viewBox="0 0 253 22" fill="none" xmlns="http://www.w3.org/2000/svg">
<path d="M34.5 3.00036L34.5179 4.50025L34.5 3.00036ZM87.5 11.5004L87.5703 10.002L87.5 11.5004ZM163 3.00036L163.002 4.50036L163 3.00036ZM239.5 11.5004L239.953 12.9303L239.5 11.5004ZM252.429 7.54506C252.73 6.77319 252.348 5.90359 251.576 5.60275L238.998 0.700412C238.226 0.399579 237.356 0.781436 237.055 1.55331C236.754 2.32519 237.136 3.19479 237.908 3.49562L249.089 7.85326L244.731 19.0341C244.43 19.806 244.812 20.6756 245.584 20.9764C246.356 21.2772 247.226 20.8954 247.527 20.1235L252.429 7.54506ZM1.03125 7.00036C1.31018 8.4742 1.31018 8.4742 1.31026 8.47418C1.31038 8.47416 1.31053 8.47413 1.31079 8.47408C1.31129 8.47398 1.31212 8.47383 1.31325 8.47362C1.31549 8.47319 1.31897 8.47254 1.32365 8.47165C1.33304 8.46989 1.34726 8.46721 1.36623 8.46366C1.40416 8.45655 1.46106 8.44592 1.5361 8.432C1.68619 8.40416 1.9088 8.36316 2.19724 8.31083C2.77414 8.20617 3.61424 8.05625 4.66399 7.87573C6.76387 7.51462 9.70059 7.03146 13.0462 6.5435C19.7561 5.56487 28.0414 4.57747 34.5179 4.50025L34.4821 1.50046C27.7961 1.58018 19.3471 2.59278 12.6132 3.57491C9.23694 4.06734 6.27443 4.55475 4.15556 4.91912C3.09592 5.10135 2.24677 5.25288 1.66176 5.35901C1.36923 5.41207 1.14272 5.45379 0.988922 5.48232C0.912018 5.49659 0.853302 5.50756 0.813583 5.515C0.793732 5.51872 0.778625 5.52156 0.768372 5.52349C0.76326 5.52446 0.759354 5.52519 0.756668 5.5257C0.755325 5.52595 0.754288 5.52615 0.753571 5.52628C0.753204 5.52635 0.752899 5.52641 0.752716 5.52645C0.752472 5.52649 0.752319 5.52652 1.03125 7.00036ZM34.5179 4.50025C44.7935 4.37774 52.6516 6.21489 60.6391 8.24192C68.6289 10.2695 76.7841 12.4989 87.4297 12.9987L87.5703 10.002C77.2767 9.51875 69.4122 7.37321 61.377 5.33409C53.3396 3.29441 45.1673 1.37307 34.4821 1.50046L34.5179 4.50025ZM87.4297 12.9987C102.442 13.7035 114.049 11.5569 125.532 9.25915C137.012 6.96193 148.337 4.52167 163.002 4.50036L162.998 1.50036C147.992 1.52217 136.386 4.02762 124.943 6.31747C113.503 8.60675 102.196 10.6887 87.5703 10.002L87.4297 12.9987ZM163.002 4.50036C177.769 4.47889 189.461 8.78298 201.376 12.084C213.262 15.3771 225.212 17.6005 239.953 12.9303L239.047 10.0704C225.132 14.4789 213.862 12.4304 202.177 9.1929C190.52 5.96334 178.29 1.47813 162.998 1.50036L163.002 4.50036ZM239.953 12.9303C242.318 12.181 245.247 11.0368 247.561 10.0914C248.723 9.61659 249.74 9.18786 250.466 8.87772C250.83 8.72261 251.121 8.59703 251.321 8.51005C251.422 8.46656 251.5 8.4327 251.552 8.40961C251.579 8.39807 251.599 8.38922 251.613 8.3832C251.62 8.38019 251.625 8.37789 251.629 8.37631C251.63 8.37552 251.632 8.37492 251.633 8.37449C251.633 8.37428 251.634 8.37412 251.634 8.374C251.634 8.37394 251.634 8.37388 251.634 8.37385C251.634 8.37381 251.634 8.37378 251.031 7.00036C250.428 5.62694 250.428 5.62693 250.428 5.62693C250.428 5.62695 250.428 5.62696 250.428 5.627C250.428 5.62706 250.428 5.62717 250.427 5.62733C250.427 5.62765 250.425 5.62814 250.424 5.62882C250.421 5.63018 250.416 5.63226 250.41 5.63505C250.397 5.64062 250.378 5.64902 250.352 5.6601C250.302 5.68225 250.226 5.71514 250.128 5.75762C249.932 5.84259 249.646 5.96592 249.289 6.11862C248.573 6.42411 247.571 6.84663 246.426 7.31429C244.127 8.25395 241.29 9.35968 239.047 10.0704L239.953 12.9303Z" fill="#E3DED8"/>
</svg>
