<svg width="79" height="79" viewBox="0 0 79 79" fill="none" xmlns="http://www.w3.org/2000/svg">
<path d="M72.4788 18.6456C60.8388 0.700579 37.0738 -4.63442 18.6438 6.52058C0.698809 17.6756 -5.12119 41.9256 6.51881 59.8706L7.48881 61.3256L3.60881 75.8756L18.1588 71.9956L19.6138 72.9656C25.9188 76.3606 32.7088 78.3006 39.4988 78.3006C46.7738 78.3006 54.0488 76.3606 60.3538 72.4806C78.2988 60.8406 83.6338 37.0756 72.4788 18.6456ZM62.2938 55.9906C60.3538 58.9006 57.9288 60.8406 54.5338 61.3256C52.5938 61.3256 50.1688 62.2956 40.4688 58.4156C32.2238 54.5356 25.4338 48.2306 20.5838 40.9556C17.6738 37.5606 16.2188 33.1956 15.7338 28.8306C15.7338 24.9506 17.1888 21.5556 19.6138 19.1306C20.5838 18.1606 21.5538 17.6756 22.5238 17.6756H24.9488C25.9188 17.6756 26.8888 17.6756 27.3738 19.6156C28.3438 22.0406 30.6467 28 30.7688 28.3456C31 29 31.0705 29.7664 31 30.5C30.9132 31.4033 30.7162 31.7894 30.5 32.5C30.2162 33.2894 29.4437 34.3431 28.8288 34.6506C27.8588 35.1356 27.3738 36.1056 27.8588 37.0756C29.7988 39.9856 32.2238 42.8956 34.6488 45.3206C37.5588 47.7456 40.4688 49.6856 43.8638 51.1406C44.8338 51.6256 45.8038 51.6256 46.2888 50.6556C46.7738 49.6856 49.1988 47.2606 50.1688 46.2906C51.1388 45.3206 51.6238 45.3206 52.5938 45.8056L60.3538 49.6856C61.3238 50.1706 62.2938 50.6556 62.7788 51.1406C63.2638 52.5956 63.2638 54.5356 62.2938 55.9906Z" fill="#E3DED8"/>
</svg>
